<svg xmlns="http://www.w3.org/2000/svg" viewBox="0 0 900 1200" width="900" height="1200">
  <defs>
    <radialGradient id="g3" cx="30%" cy="20%" r="90%">
      <stop offset="0%" stop-color="#302416"/>
      <stop offset="100%" stop-color="#161311"/>
    </radialGradient>
  </defs>
  <rect width="900" height="1200" fill="url(#g3)"/>
  <g><line x1="847" y1="435" x2="808" y2="487" stroke="#c9a227" stroke-width="1" opacity="0.08"/>
<line x1="426" y1="347" x2="548" y2="246" stroke="#c9a227" stroke-width="1" opacity="0.17"/>
<line x1="572" y1="470" x2="465" y2="613" stroke="#c9a227" stroke-width="1" opacity="0.13"/>
<line x1="841" y1="785" x2="1006" y2="727" stroke="#c9a227" stroke-width="1" opacity="0.11"/>
<line x1="825" y1="717" x2="880" y2="533" stroke="#c9a227" stroke-width="1" opacity="0.1"/>
<line x1="778" y1="489" x2="869" y2="520" stroke="#c9a227" stroke-width="1" opacity="0.12"/>
<line x1="891" y1="870" x2="1080" y2="930" stroke="#c9a227" stroke-width="1" opacity="0.07"/>
<line x1="101" y1="693" x2="136" y2="603" stroke="#c9a227" stroke-width="1" opacity="0.11"/>
<line x1="900" y1="1024" x2="708" y2="1183" stroke="#c9a227" stroke-width="1" opacity="0.05"/>
<line x1="642" y1="1030" x2="783" y2="1184" stroke="#c9a227" stroke-width="1" opacity="0.1"/>
<line x1="506" y1="988" x2="556" y2="1065" stroke="#c9a227" stroke-width="1" opacity="0.07"/>
<line x1="698" y1="318" x2="892" y2="124" stroke="#c9a227" stroke-width="1" opacity="0.08"/>
<line x1="671" y1="933" x2="744" y2="1031" stroke="#c9a227" stroke-width="1" opacity="0.21"/>
<line x1="16" y1="751" x2="170" y2="655" stroke="#c9a227" stroke-width="1" opacity="0.13"/>
</g>
  <circle cx="150" cy="180" r="220" fill="#c9a227" opacity="0.08"/>
  <circle cx="780" cy="1000" r="260" fill="#c9a227" opacity="0.06"/>
</svg>
